<svg xmlns="http://www.w3.org/2000/svg" width="46" height="49" fill="none" viewBox="0 0 46 49"><path fill="#EAD303" fill-rule="evenodd" d="M17.8812 9.78439C17.7481 8.99494 17.6479 8.21445 17.5831 7.43386C17.4856 6.26299 17.5459 5.08316 17.5113 3.91229C17.4962 3.41555 17.4368 2.12051 17.4607 1.93424C17.678 0.310977 18.9882 0.0625798 19.3714 0.0182284C19.5568 -0.00838233 21.4603 -0.221173 21.871 1.88995C22.3748 4.47119 22.5363 7.07015 22.358 9.61591C22.774 11.7803 23.4854 13.9357 24.4248 15.8871C28.1627 23.6486 35.2855 24.4026 43.0026 24.3316C44.1895 24.3139 45.175 25.2453 45.2371 26.425C45.2992 27.6136 44.4157 28.6426 43.2342 28.749C38.9206 29.1659 31.2673 32.6254 28.6213 36.2267C28.0678 36.9807 27.7458 38.7991 27.32 40.582C26.7257 43.0568 26.0188 45.505 25.2266 46.5339C25.1078 46.6936 23.6628 48.3258 23.2317 48.5653C22.1957 49.133 21.3663 48.8047 20.8953 48.5031C20.4243 48.2015 19.8912 47.6072 19.6783 46.6226C19.4556 45.5937 19.6437 43.4825 19.6091 43.0301C19.4831 41.3891 19.155 38.1692 18.4853 35.4017C18.1242 33.9115 17.7393 32.5366 17.1024 31.8536C14.7447 29.3256 10.9748 29.6982 7.80013 30.1151C7.43556 30.1594 7.071 30.2127 6.70732 30.257C5.41492 30.6384 4.04266 30.9222 2.59237 31.0908C0.402304 31.348 0.0421953 29.3345 0.0226808 29.2014C-0.0181224 28.9087 -0.16982 27.4008 1.48094 26.7976C1.661 26.7355 2.98978 26.4428 3.50159 26.3275C4.21476 26.1678 4.9359 26.0436 5.65971 25.9283C13.1365 23.6043 17.1973 17.0758 17.8812 9.78439ZM20.4473 17.8475C23.2699 23.6842 27.5533 26.5049 32.6306 27.7822H32.6298C29.4595 29.4409 26.5758 31.5166 25.0474 33.6011C24.4673 34.3906 23.9351 35.9783 23.4552 37.7612C23.1953 36.1025 22.8441 34.3373 22.3802 32.8293C21.8524 31.1085 21.1419 29.6805 20.3489 28.8289C18.8179 27.1879 16.8966 26.2743 14.8307 25.8219C17.3037 23.6309 19.1789 20.8989 20.4473 17.8475Z" clip-rule="evenodd"/></svg>