<svg width="53" height="53" viewBox="0 0 53 53" fill="none" xmlns="http://www.w3.org/2000/svg">
<path d="M28.0615 36.0613L24.0622 46.9135C23.9438 47.2324 23.7307 47.5074 23.4514 47.7017C23.1722 47.8959 22.8402 48 22.5 48C22.1598 48 21.8278 47.8959 21.5486 47.7017C21.2693 47.5074 21.0562 47.2324 20.9378 46.9135L16.9385 36.0613C16.8541 35.8322 16.721 35.6242 16.5484 35.4516C16.3758 35.279 16.1678 35.1459 15.9387 35.0615L5.08649 31.0622C4.76759 30.9438 4.49255 30.7307 4.29833 30.4514C4.1041 30.1722 4 29.8402 4 29.5C4 29.1598 4.1041 28.8278 4.29833 28.5486C4.49255 28.2693 4.76759 28.0562 5.08649 27.9378L15.9387 23.9385C16.1678 23.8541 16.3758 23.721 16.5484 23.5484C16.721 23.3758 16.8541 23.1678 16.9385 22.9387L20.9378 12.0865C21.0562 11.7676 21.2693 11.4926 21.5486 11.2983C21.8278 11.1041 22.1598 11 22.5 11C22.8402 11 23.1722 11.1041 23.4514 11.2983C23.7307 11.4926 23.9438 11.7676 24.0622 12.0865L28.0615 22.9387C28.1459 23.1678 28.279 23.3758 28.4516 23.5484C28.6242 23.721 28.8322 23.8541 29.0613 23.9385L39.9135 27.9378C40.2324 28.0562 40.5074 28.2693 40.7017 28.5486C40.8959 28.8278 41 29.1598 41 29.5C41 29.8402 40.8959 30.1722 40.7017 30.4514C40.5074 30.7307 40.2324 30.9438 39.9135 31.0622L29.0613 35.0615C28.8322 35.1459 28.6242 35.279 28.4516 35.4516C28.279 35.6242 28.1459 35.8322 28.0615 36.0613V36.0613Z" stroke="#3873E7" stroke-width="3" stroke-linecap="round" stroke-linejoin="round"/>
<path d="M36 3V13" stroke="#488CF1" stroke-width="3" stroke-linecap="round" stroke-linejoin="round"/>
<path d="M41 8H31" stroke="#488CF1" stroke-width="3" stroke-linecap="round" stroke-linejoin="round"/>
<path d="M46 15V22" stroke="#488CF1" stroke-width="3" stroke-linecap="round" stroke-linejoin="round"/>
<path d="M49 18H43" stroke="#488CF1" stroke-width="3" stroke-linecap="round" stroke-linejoin="round"/>
</svg>
