<svg xmlns="http://www.w3.org/2000/svg" xmlns:xlink="http://www.w3.org/1999/xlink" id="logo-54" x="0" y="0" version="1.1" viewBox="0 0 149.9 41" xml:space="preserve" style="enable-background:new 0 0 149.9 41"><style type="text/css">.st0{fill-rule:evenodd;clip-rule:evenodd}.st0,.st1{fill:#c7cc0d}</style><path d="M20.7,40.4c11,0,20-9,20-20c0-11-9-20-20-20c-11,0-20,9-20,20C0.7,31.5,9.6,40.4,20.7,40.4z M26.9,9.8	c0.3-1.1-0.7-1.7-1.7-1l-13.3,9.5c-1,0.7-0.9,2.2,0.2,2.2h3.5v0h6.8l-5.6,2l-2.5,8.7c-0.3,1.1,0.7,1.7,1.7,1l13.3-9.5	c1-0.7,0.9-2.2-0.2-2.2h-5.3L26.9,9.8z" class="st0"/><g><path d="M53.6,28.7c-0.2,0-0.3-0.1-0.4-0.2S53,28.3,53,28.2V12.7c0-0.2,0.1-0.3,0.2-0.4c0.1-0.1,0.3-0.2,0.4-0.2h1.9 c0.2,0,0.4,0.1,0.5,0.2c0.1,0.1,0.2,0.2,0.2,0.3l4.6,8.5l4.6-8.5c0-0.1,0.1-0.2,0.2-0.3c0.1-0.1,0.3-0.2,0.5-0.2H68 c0.2,0,0.3,0.1,0.4,0.2c0.1,0.1,0.2,0.3,0.2,0.4v15.4c0,0.2-0.1,0.3-0.2,0.4c-0.1,0.1-0.3,0.2-0.4,0.2h-2c-0.2,0-0.3-0.1-0.4-0.2 s-0.2-0.2-0.2-0.4V17.9l-3.3,6.3c-0.1,0.1-0.2,0.3-0.3,0.4c-0.1,0.1-0.3,0.2-0.5,0.2h-1c-0.2,0-0.4-0.1-0.5-0.2 c-0.1-0.1-0.2-0.2-0.3-0.4l-3.3-6.3v10.3c0,0.2-0.1,0.3-0.2,0.4c-0.1,0.1-0.2,0.2-0.4,0.2H53.6z" class="st1"/><path d="M77.3,29c-1.8,0-3.1-0.5-4.2-1.5c-1-1-1.6-2.5-1.7-4.3c0-0.2,0-0.4,0-0.6c0-0.2,0-0.4,0-0.6 c0.1-1.2,0.3-2.2,0.8-3.1c0.5-0.9,1.2-1.5,2-2c0.9-0.5,1.9-0.7,3-0.7c1.3,0,2.4,0.3,3.2,0.8c0.9,0.5,1.5,1.3,2,2.2 c0.4,0.9,0.7,2,0.7,3.3v0.5c0,0.2-0.1,0.3-0.2,0.4c-0.1,0.1-0.3,0.2-0.4,0.2h-7.9c0,0.1,0,0.2,0,0.2c0,0.6,0.1,1.1,0.3,1.5 c0.2,0.5,0.5,0.8,0.9,1.1c0.4,0.3,0.9,0.4,1.4,0.4c0.4,0,0.8-0.1,1.1-0.2c0.3-0.1,0.5-0.3,0.7-0.5s0.3-0.3,0.4-0.4 c0.1-0.2,0.3-0.3,0.3-0.3c0.1,0,0.2-0.1,0.4-0.1h2c0.2,0,0.3,0,0.4,0.1c0.1,0.1,0.1,0.2,0.1,0.4c0,0.3-0.1,0.6-0.4,0.9 c-0.2,0.4-0.6,0.7-1.1,1.1s-1,0.6-1.7,0.9C79,28.9,78.2,29,77.3,29z M74.7,21.5h5.2v-0.1c0-0.6-0.1-1.2-0.3-1.6 c-0.2-0.5-0.5-0.8-0.9-1.1c-0.4-0.3-0.9-0.4-1.4-0.4s-1,0.1-1.4,0.4c-0.4,0.3-0.7,0.6-0.9,1.1C74.8,20.3,74.7,20.8,74.7,21.5 L74.7,21.5z" class="st1"/><path d="M86.3,28.7c-0.2,0-0.3-0.1-0.4-0.2s-0.2-0.2-0.2-0.4V17c0-0.2,0.1-0.3,0.2-0.4c0.1-0.1,0.2-0.2,0.4-0.2h1.9 c0.2,0,0.3,0.1,0.4,0.2c0.1,0.1,0.2,0.3,0.2,0.4v1c0.4-0.5,0.8-0.9,1.4-1.2c0.6-0.3,1.2-0.4,2-0.4h1c0.2,0,0.3,0.1,0.4,0.2 c0.1,0.1,0.2,0.2,0.2,0.4v1.7c0,0.2-0.1,0.3-0.2,0.4c-0.1,0.1-0.2,0.2-0.4,0.2h-1.9c-0.8,0-1.3,0.2-1.8,0.6c-0.4,0.4-0.6,1-0.6,1.8 v6.5c0,0.2-0.1,0.3-0.2,0.4c-0.1,0.1-0.3,0.2-0.4,0.2H86.3z" class="st1"/><path d="M100.8,29c-1.1,0-2.1-0.2-3-0.6s-1.5-1-2-1.9c-0.5-0.8-0.7-1.8-0.8-3c0-0.2,0-0.5,0-0.9s0-0.7,0-1 c0-1.2,0.3-2.1,0.8-3c0.5-0.8,1.2-1.4,2-1.9c0.9-0.4,1.9-0.6,3-0.6c1,0,1.9,0.1,2.6,0.4s1.3,0.6,1.8,1.1c0.5,0.4,0.8,0.9,1,1.4 c0.2,0.5,0.4,0.9,0.4,1.3c0,0.2,0,0.3-0.2,0.4c-0.1,0.1-0.3,0.2-0.4,0.2h-2.1c-0.2,0-0.3,0-0.4-0.1s-0.2-0.2-0.2-0.4 c-0.2-0.6-0.5-1.1-0.9-1.3c-0.4-0.3-0.9-0.4-1.5-0.4c-0.8,0-1.4,0.2-1.9,0.7c-0.5,0.5-0.7,1.3-0.7,2.4c0,0.6,0,1.2,0,1.7 c0,1.1,0.3,1.9,0.7,2.4s1.1,0.7,1.9,0.7c0.6,0,1.1-0.1,1.5-0.4c0.4-0.3,0.7-0.7,0.9-1.3c0.1-0.2,0.2-0.3,0.2-0.4s0.2-0.1,0.4-0.1 h2.1c0.2,0,0.3,0.1,0.4,0.2c0.1,0.1,0.2,0.2,0.2,0.4c0,0.3-0.1,0.6-0.2,1c-0.1,0.4-0.3,0.7-0.6,1.1c-0.3,0.4-0.7,0.7-1.1,1 c-0.4,0.3-1,0.6-1.6,0.7C102.3,28.9,101.6,29,100.8,29z" class="st1"/><path d="M112.5,29c-0.8,0-1.6-0.2-2.2-0.5c-0.7-0.3-1.2-0.8-1.6-1.3c-0.4-0.5-0.6-1.2-0.6-1.8c0-1.1,0.5-2,1.4-2.6 c0.9-0.7,2.1-1.1,3.5-1.3l3.2-0.5v-0.5c0-0.7-0.2-1.2-0.5-1.5c-0.3-0.4-0.9-0.5-1.7-0.5c-0.6,0-1,0.1-1.4,0.3 c-0.4,0.2-0.6,0.5-0.8,0.9c-0.1,0.2-0.3,0.3-0.5,0.3h-1.9c-0.2,0-0.3,0-0.4-0.1s-0.1-0.2-0.1-0.4c0-0.3,0.1-0.6,0.3-0.9 c0.2-0.4,0.5-0.7,0.9-1.1c0.4-0.3,0.9-0.6,1.6-0.9c0.6-0.2,1.4-0.4,2.3-0.4c1,0,1.8,0.1,2.5,0.4c0.7,0.2,1.2,0.6,1.6,1 c0.4,0.4,0.7,0.9,0.9,1.4c0.2,0.6,0.3,1.1,0.3,1.8v7.5c0,0.2-0.1,0.3-0.2,0.4s-0.2,0.2-0.4,0.2H117c-0.2,0-0.3-0.1-0.4-0.2 c-0.1-0.1-0.2-0.2-0.2-0.4v-0.9c-0.2,0.3-0.5,0.6-0.8,0.8c-0.3,0.3-0.8,0.5-1.3,0.7C113.8,28.9,113.2,29,112.5,29z M113.4,26.7 c0.6,0,1.1-0.1,1.5-0.4c0.5-0.2,0.8-0.6,1.1-1.1c0.3-0.5,0.4-1.1,0.4-1.9v-0.5l-2.4,0.4c-0.9,0.1-1.6,0.4-2.1,0.7 c-0.5,0.3-0.7,0.7-0.7,1.2c0,0.3,0.1,0.6,0.3,0.9c0.2,0.2,0.5,0.4,0.8,0.5C112.6,26.7,113,26.7,113.4,26.7z" class="st1"/><path d="M127.1,29c-0.8,0-1.5-0.1-2.2-0.4c-0.6-0.3-1.1-0.7-1.6-1.2c-0.4-0.5-0.7-1.1-0.9-1.8 c-0.2-0.7-0.3-1.4-0.4-2.3c0-0.3,0-0.5,0-0.8s0-0.5,0-0.8c0-0.8,0.2-1.5,0.4-2.2c0.2-0.7,0.5-1.3,0.9-1.8c0.4-0.5,0.9-0.9,1.6-1.2 c0.6-0.3,1.3-0.4,2.2-0.4c0.9,0,1.6,0.1,2.2,0.4c0.6,0.3,1.1,0.7,1.5,1.1v-5.3c0-0.2,0.1-0.3,0.2-0.4c0.1-0.1,0.2-0.2,0.4-0.2h2 c0.2,0,0.3,0.1,0.4,0.2c0.1,0.1,0.2,0.2,0.2,0.4v15.7c0,0.2-0.1,0.3-0.2,0.4s-0.2,0.2-0.4,0.2h-1.9c-0.2,0-0.3-0.1-0.4-0.2 c-0.1-0.1-0.2-0.2-0.2-0.4v-0.9c-0.4,0.5-0.9,0.9-1.5,1.2C128.8,28.8,128,29,127.1,29z M128,26.4c0.7,0,1.2-0.2,1.6-0.5 c0.4-0.3,0.7-0.7,0.9-1.2c0.2-0.5,0.3-0.9,0.3-1.4c0-0.3,0-0.6,0-0.9s0-0.6,0-0.9c0-0.5-0.1-0.9-0.3-1.4c-0.2-0.4-0.5-0.8-0.9-1.1 c-0.4-0.3-0.9-0.4-1.5-0.4c-0.7,0-1.2,0.1-1.6,0.4c-0.4,0.3-0.7,0.7-0.8,1.2c-0.2,0.5-0.3,1-0.3,1.6c0,0.5,0,0.9,0,1.4 c0,0.6,0.1,1.1,0.3,1.6c0.2,0.5,0.5,0.9,0.8,1.2S127.3,26.4,128,26.4z" class="st1"/><path d="M142.5,29c-1.3,0-2.3-0.2-3.2-0.7c-0.9-0.4-1.5-1.1-2-1.9c-0.5-0.8-0.7-1.7-0.8-2.8c0-0.3,0-0.6,0-1s0-0.8,0-1 c0.1-1.1,0.3-2,0.8-2.8c0.5-0.8,1.1-1.4,2-1.9c0.9-0.4,1.9-0.7,3.1-0.7c1.2,0,2.3,0.2,3.1,0.7s1.5,1.1,2,1.9 c0.5,0.8,0.7,1.7,0.8,2.8c0,0.3,0,0.6,0,1s0,0.8,0,1c-0.1,1.1-0.3,2-0.8,2.8c-0.5,0.8-1.1,1.4-2,1.9C144.8,28.8,143.8,29,142.5,29z M142.5,26.6c0.8,0,1.5-0.3,1.9-0.8s0.7-1.3,0.8-2.3c0-0.2,0-0.5,0-0.9s0-0.7,0-0.9c0-1-0.3-1.8-0.8-2.3c-0.5-0.5-1.1-0.8-1.9-0.8 c-0.8,0-1.5,0.3-1.9,0.8c-0.5,0.5-0.7,1.3-0.8,2.3c0,0.2,0,0.5,0,0.9s0,0.7,0,0.9c0,1,0.3,1.8,0.8,2.3 C141,26.4,141.7,26.6,142.5,26.6z" class="st1"/></g></svg>