<svg width="112" height="109" viewBox="0 0 112 109" fill="none" xmlns="http://www.w3.org/2000/svg">
<path d="M70.8272 4.81959C85.2878 17.863 87.8914 40.1205 83.4602 58.6539C81.3384 67.5386 76.6619 76.3682 67.8569 80.5684C63.73 82.5368 58.9492 83.3078 54.6241 82.0099C51.8256 81.1704 48.6588 79.1793 48.6558 75.9718C48.6462 71.634 53.8046 71.5421 56.1248 73.9834C60.3676 78.4388 54.6678 85.894 51.3097 89.2794C46.8711 93.7525 41.3158 96.9063 35.6516 99.5768C34.1312 100.296 35.404 102.464 36.9186 101.736C43.3908 98.6441 49.7597 94.8528 54.4925 89.3929C57.8333 85.5373 61.0729 80.1999 59.5227 75.1183C58.3477 71.271 53.3494 68.4333 49.3417 70.5452C44.6045 73.0453 45.829 79.2388 49.1429 82.0043C57.5758 89.0511 71.3263 83.5629 77.8032 75.9318C85.7994 66.5084 87.7288 53.1529 87.4611 41.554C87.1364 27.4532 82.544 13.2951 71.6631 3.982C71.1087 3.51346 70.2848 4.32396 70.8272 4.81959Z" fill="#52A792"/>
<path d="M40.4117 88.9371C41.3557 89.7241 39.353 93.1213 38.9368 93.8527C38.1164 95.2882 37.0569 96.5306 35.9208 97.7378C35.0188 98.7009 33.779 100.029 34.6673 101.376C35.5002 102.628 37.7151 102.343 39.0163 102.393C42.3289 102.537 45.6598 102.784 48.9834 102.768C50.5731 102.762 50.527 100.541 49.0241 100.409C46.4561 100.188 43.8546 100.16 41.2737 100.061C40.5884 100.036 38.0529 100.323 37.6053 99.7982C37.1832 99.3054 38.1895 98.6747 38.7183 98.0041C40.5239 95.7234 43.4093 91.2944 42.2749 88.3974C42.1259 88.0245 41.8663 87.7965 41.4432 87.7779C41.2719 87.7717 41.0925 87.7636 40.9211 87.7574C40.3273 87.7457 39.9664 88.5713 40.4117 88.9371Z" fill="#52A792"/>
<path d="M72.429 2.69196C71.8743 1.72313 70.2631 2.00159 70.0098 3.11767C69.9608 3.3199 69.9971 3.57218 70.1666 3.70622C70.9531 4.33211 71.9435 4.53146 72.9252 4.10878C73.1869 3.9952 73.4777 3.76448 73.4464 3.44925C73.2723 1.50979 70.8774 1.33409 69.2976 1.82094C68.5155 2.05979 67.7314 2.53334 67.5721 3.38081C67.3826 4.3794 68.1879 5.06102 69.0668 5.33244C70.673 5.83094 73.3704 5.52213 73.6518 3.4421C73.9276 1.41206 71.2748 0.820661 69.7331 1.43194C68.1076 2.07904 67.2464 3.88552 68.2046 5.35144C69.0673 6.66656 71.077 7.05498 72.1456 5.61382C73.2844 4.07805 72.3501 1.8909 70.3751 1.9425C69.5638 1.96495 68.7049 2.38236 68.2683 3.07895C67.7419 3.9083 67.9281 4.93991 68.908 5.25222C69.4944 5.44181 70.1923 5.45249 70.8078 5.52494C71.3399 5.58629 71.8794 5.63658 72.3906 5.37659C73.1808 4.97289 73.4645 4.09915 73.263 3.30337C73.0427 2.45187 72.3597 1.81191 71.4616 1.69847C70.2972 1.54786 69.2244 2.18421 68.294 2.83703C67.9425 3.08336 67.6817 3.60336 67.9673 3.98283C69.1 5.51983 71.4155 5.98894 73.0676 4.73241C73.4156 4.46814 73.6932 3.96494 73.3988 3.57057C72.304 2.09809 69.9489 2.46622 69.2617 4.22395C68.8576 5.26172 70.5305 5.64767 70.9322 4.61791C71.0515 4.32108 71.6922 4.19855 71.8865 4.45815C71.9962 4.07355 72.1081 3.68093 72.2178 3.29633C71.3857 3.93813 70.1058 3.99544 69.4513 3.11852C69.3417 3.50313 69.232 3.88773 69.1247 4.26433C69.6337 3.9055 71.0549 2.7912 71.5481 3.59591C71.7427 3.91542 71.6622 3.90927 71.3938 3.94004C70.8836 3.9993 70.1427 3.8203 69.6418 3.74066C69.4848 3.69936 69.5029 3.74211 69.6851 3.86203C69.7404 3.78956 69.8096 3.72891 69.8986 3.69004C70.1206 3.63979 70.2856 3.51623 70.5312 3.56559C70.9737 3.65284 71.1102 4.09978 70.9584 4.49581C70.6576 5.29284 69.8113 4.92223 69.5152 4.38209C69.1137 3.65031 69.7813 2.97826 70.512 2.78289C70.9237 2.67473 71.4474 2.67426 71.8037 2.9122C72.2789 3.23377 71.9998 3.6511 71.5393 3.85464C71.0892 4.05207 70.4293 3.99905 69.9608 3.92706C69.5624 3.86731 68.7531 3.65507 69.4452 3.32229C70.0852 3.02002 71.962 2.70583 72.0796 3.64428C72.1903 3.39247 72.2982 3.1357 72.4089 2.8839C71.8757 3.13013 71.3625 3.01765 70.9145 2.70678C71.0109 2.93045 71.1049 3.16216 71.2013 3.38583C71.1996 3.24006 71.2723 3.19735 71.4247 3.25468C71.8304 3.8506 72.782 3.30541 72.429 2.69196Z" fill="#52A792"/>
</svg>
